<?xml version="1.0" encoding="UTF-8"?>
<svg id="Layer_2" data-name="Layer 2" xmlns="http://www.w3.org/2000/svg" viewBox="0 0 385.97 76.34">
  <defs>
    <style>
      .cls-1 {
        fill: #fff;
        stroke-width: 0px;
      }
    </style>
  </defs>
  <g id="Layer_1-2" data-name="Layer 1">
    <g>
      <g>
        <path class="cls-1" d="M149.69,27.88c-1.81-1-4.06-1.49-6.75-1.49h-31.94l-4.15,30.11h7.31l3.32-23.63h11.46l-3.27,23.63h7.31l3.32-23.63h6.09c1.7,0,2.96.48,3.79,1.44s1.12,2.31.86,4.04l-2.55,18.15h7.31l2.55-18.1c.37-2.44.14-4.55-.69-6.34s-2.15-3.18-3.96-4.18Z"/>
        <path class="cls-1" d="M178.36,44.43c-.14,1.22-.55,2.28-1.19,3.18-.65.91-1.45,1.61-2.41,2.13-.96.52-2.05.77-3.26.77s-2.19-.26-3.01-.77c-.83-.52-1.44-1.23-1.83-2.13-.39-.9-.51-1.96-.36-3.18l2.55-18.04h-7.36l-2.49,18.04c-.33,2.51-.07,4.72.8,6.61.87,1.9,2.26,3.4,4.18,4.48,1.92,1.09,4.25,1.63,6.98,1.63s4.96-.51,7.02-1.52c2.07-1.02,3.78-2.44,5.15-4.29,1.36-1.85,2.21-4.02,2.55-6.53l2.54-18.43h-7.3l-2.55,18.04Z"/>
        <path class="cls-1" d="M196.63,14.59l-4.65,32.88c-.41,3.14.11,5.48,1.55,7.03,1.44,1.55,3.84,2.32,7.19,2.32h1.16l.89-6.31h-.39c-1.18,0-2.01-.25-2.49-.75-.48-.5-.65-1.3-.5-2.41l4.59-32.77h-7.36Z"/>
        <path class="cls-1" d="M222.58,19.52h-7.36l-.28,2.1c-.22,1.48-.82,2.64-1.8,3.49-.98.85-2.21,1.27-3.68,1.27h-.39l-.94,6.48h5.2l-1.83,13.12c-.44,3.36.18,6.01,1.85,7.94,1.68,1.94,4.25,2.91,7.72,2.91.48,0,1.04-.02,1.69-.06.65-.04,1.23-.13,1.74-.28l.55-6.2c-.44.07-.83.12-1.16.14-.33.02-.66.03-1,.03-1.15,0-2.04-.17-2.68-.5-.65-.33-1.07-.83-1.27-1.49-.2-.66-.23-1.51-.08-2.55l1.83-13.06h6.86l.88-6.48h-6.81l.94-6.86Z"/>
        <polygon class="cls-1" points="230.06 56.49 237.36 56.49 241.57 26.38 234.21 26.38 230.06 56.49"/>
        <polygon class="cls-1" points="234.71 23.01 242.07 23.01 243.12 15.26 235.81 15.26 234.71 23.01"/>
        <polygon class="cls-1" points="257.51 45.88 253.14 26.38 245.55 26.38 253.14 56.49 259.56 56.49 275.66 26.38 267.31 26.38 257.51 45.88"/>
        <path class="cls-1" d="M299.3,27.54c-2.07-1.22-4.59-1.83-7.58-1.83-2.25,0-4.34.44-6.28,1.3-1.94.87-3.62,2.07-5.06,3.62-1.44,1.55-2.56,3.33-3.38,5.34-.81,2.01-1.22,4.16-1.22,6.45,0,2.77.62,5.27,1.85,7.5,1.23,2.23,3.03,3.99,5.4,5.29,2.36,1.29,5.2,1.94,8.52,1.94h9.91l.88-6.37h-10.63c-1.84,0-3.4-.3-4.65-.91s-2.21-1.5-2.85-2.68c-.57-1.04-.84-2.27-.91-3.65h21.69c.18-.74.33-1.46.44-2.16.11-.7.17-1.38.17-2.05,0-2.55-.54-4.84-1.6-6.89-1.07-2.05-2.64-3.68-4.71-4.9ZM286.82,33.22c1.23-1.02,2.85-1.52,4.84-1.52,1.55,0,2.86.39,3.93,1.16s1.8,1.83,2.19,3.15c.18.61.25,1.26.24,1.94h-14.06c.06-.21.09-.45.16-.66.57-1.7,1.47-3.05,2.71-4.07Z"/>
        <path class="cls-1" d="M329.79,26.05h-1.77c-2.1,0-3.96.44-5.56,1.33-1.2.66-2.24,1.71-3.12,3.13l.55-4.13h-6.92l-4.15,30.11h7.31l2.21-16.22c.41-2.55,1.32-4.47,2.74-5.78,1.42-1.31,3.16-1.96,5.23-1.96h2.6l.89-6.48Z"/>
        <path class="cls-1" d="M343.13,31.7c1.47,0,2.79.38,3.96,1.13,1.16.76,1.91,1.8,2.24,3.13l5.7-2.27c-.66-2.47-2.04-4.42-4.12-5.84-2.09-1.42-4.59-2.13-7.5-2.13-2.25,0-4.27.44-6.06,1.3-1.79.87-3.19,2.04-4.21,3.51-1.02,1.48-1.52,3.17-1.52,5.09s.59,3.64,1.77,5.07c1.18,1.42,2.89,2.44,5.15,3.07l4.81,1.38c.78.22,1.47.55,2.08.97s.91,1.06.91,1.91c0,.96-.41,1.77-1.22,2.43-.81.66-1.96,1-3.43,1-1.7,0-3.18-.46-4.46-1.38s-2.24-2.22-2.91-3.88l-5.59,2.27c.44,1.74,1.25,3.26,2.44,4.57,1.18,1.31,2.66,2.32,4.43,3.04,1.77.72,3.71,1.08,5.81,1.08,2.36,0,4.46-.44,6.28-1.3s3.26-2.04,4.29-3.51c1.03-1.48,1.55-3.14,1.55-4.98s-.6-3.57-1.8-4.95c-1.2-1.38-2.95-2.43-5.23-3.13l-4.65-1.44c-.85-.22-1.59-.55-2.21-1-.63-.44-.94-1.09-.94-1.94,0-1,.41-1.78,1.24-2.35.83-.57,1.89-.86,3.18-.86Z"/>
        <path class="cls-1" d="M385.09,32c-.85-1.79-2.19-3.17-4.01-4.15s-4.1-1.47-6.84-1.47h-10.18l-.94,6.48h10.57c1.77,0,3.07.48,3.9,1.44.67.77.98,1.82.96,3.1l-9.46,1.5c-2.21.33-4.17.93-5.87,1.8-1.7.87-3.03,1.98-4.01,3.35-.98,1.37-1.47,3.01-1.47,4.93,0,1.77.42,3.27,1.27,4.48.85,1.22,2.02,2.14,3.52,2.77,1.49.63,3.22.94,5.17.94,1.55,0,3-.2,4.35-.61,1.35-.41,2.59-1.04,3.73-1.91.33-.25.62-.55.93-.83l-.38,2.68h6.92l2.55-18.1c.37-2.47.13-4.6-.72-6.39ZM373.35,50.6c-1.18.68-2.51,1.02-3.99,1.02-1.18,0-2.15-.26-2.9-.77-.76-.52-1.13-1.29-1.13-2.32,0-1.18.46-2.11,1.38-2.79s2.07-1.15,3.43-1.41l7.69-1.35-.16,1.13c-.19,1.37-.66,2.62-1.41,3.76-.76,1.14-1.72,2.06-2.91,2.74Z"/>
      </g>
      <g>
        <g>
          <polygon class="cls-1" points="34.75 57.21 20.67 57.21 25.95 19.14 40.04 19.14 34.75 57.21"/>
          <polygon class="cls-1" points="52.33 57.21 38.24 57.21 43.53 19.14 57.61 19.14 52.33 57.21"/>
          <path class="cls-1" d="M69.9,57.21h-14.08l5.28-38.07h3.39c5.65,0,10,4.99,9.22,10.59l-3.81,27.48Z"/>
        </g>
        <path class="cls-1" d="M87.13,76.34H21.88c-6.33,0-12.34-2.74-16.5-7.51C1.22,64.06-.66,57.73.21,51.46L4.73,18.87C6.22,8.11,15.54,0,26.4,0h46.19c6.33,0,12.34,2.74,16.5,7.51,4.16,4.77,6.04,11.11,5.17,17.38l-7.14,51.46ZM26.4,6.52c-7.63,0-14.17,5.7-15.22,13.25l-4.52,32.59c-.61,4.4.71,8.85,3.63,12.2s7.14,5.27,11.58,5.27h59.57l6.36-45.84c.61-4.4-.71-8.85-3.63-12.2-2.92-3.35-7.14-5.27-11.58-5.27H26.4Z"/>
      </g>
    </g>
  </g>
</svg>